<?xml version="1.0" encoding="UTF-8"?>
<svg version="1.1" xmlns="http://www.w3.org/2000/svg" width="500" height="500">
<path d="M0 0 C10.89 0 21.78 0 33 0 C33.41886475 2.43802002 33.83772949 4.87604004 34.26928711 7.38793945 C35.65215529 15.43493802 37.03759518 23.48149226 38.42430782 31.52782917 C39.26515088 36.40725643 40.10512179 41.28683052 40.94311523 46.16674805 C41.75155851 50.87439414 42.56227218 55.58164405 43.37457466 60.28862572 C43.68438505 62.08625496 43.9933712 63.88402646 44.30152702 65.68194008 C44.73262248 68.19629839 45.16662157 70.71013914 45.60131836 73.22387695 C45.72863342 73.97050095 45.85594849 74.71712494 45.98712158 75.4863739 C46.49680263 78.41886507 47.05697219 81.17091657 48 84 C48.28592514 82.99188766 48.57185028 81.98377533 48.86643982 80.94511414 C51.55846691 71.45392966 54.25121429 61.9629498 56.94467068 52.47217083 C58.3294443 47.5926343 59.71396227 42.71302552 61.09790039 37.83325195 C62.43298002 33.12578925 63.76872542 28.41851592 65.1049366 23.71137428 C65.61512124 21.91367157 66.12506418 20.11590024 66.63476372 18.31805992 C67.34758876 15.80389999 68.06126551 13.28998332 68.77514648 10.77612305 C68.98661819 10.02949905 69.1980899 9.28287506 69.41596985 8.5136261 C70.22833656 5.65567191 71.06027664 2.81917007 72 0 C81.57 0 91.14 0 101 0 C102.96349851 5.23599601 104.75866822 10.31117682 106.25244141 15.66943359 C106.45609818 16.38915344 106.65975494 17.10887329 106.86958313 17.85040283 C107.53335846 20.19888117 108.19241536 22.54865644 108.8515625 24.8984375 C109.31534911 26.54141095 109.77949678 28.18428251 110.24398804 29.82705688 C111.45969596 34.12934243 112.6716777 38.43266741 113.88250732 42.73632812 C115.82663445 49.64537077 117.77477974 56.55327547 119.72611618 63.46028519 C120.40652563 65.87172604 121.08430466 68.28389555 121.76187134 70.69613647 C122.1765973 72.16643024 122.59141754 73.63669743 123.00634766 75.10693359 C123.2884333 76.1152272 123.2884333 76.1152272 123.57621765 77.14389038 C124.25103369 79.5281113 124.8890495 81.778099 126 84 C126.17317245 82.97713898 126.34634491 81.95427795 126.52476501 80.90042114 C128.15460819 71.27611501 129.7878028 61.6523829 131.42430782 52.02920723 C132.26560662 47.08144351 133.10570996 42.13348291 133.94311523 37.18505859 C134.75081164 32.412455 135.56160377 27.64038691 136.37457466 22.86867905 C136.68468857 21.04515307 136.99367329 19.2214347 137.30152702 17.39752579 C137.73183189 14.84930171 138.16609237 12.30178202 138.60131836 9.75439453 C138.72863342 8.99482452 138.85594849 8.23525452 138.98712158 7.45266724 C139.88594784 2.22810432 139.88594784 2.22810432 141 0 C151.56 0 162.12 0 173 0 C171.87447679 11.25523208 171.87447679 11.25523208 171.09405518 15.59912109 C170.91794205 16.58813919 170.74182892 17.57715729 170.56037903 18.59614563 C170.3693309 19.64465195 170.17828278 20.69315826 169.98144531 21.7734375 C169.77784897 22.90665939 169.57425262 24.03988129 169.36448669 25.20744324 C167.48434906 35.62471979 165.54910179 46.03208385 163.594944 56.43571472 C162.15751379 64.09290234 160.75024736 71.75434262 159.3823483 79.424263 C158.41096743 84.8551845 157.40329486 90.27866642 156.37023807 95.69818878 C155.7577984 98.91662675 155.16563496 102.13654964 154.6034317 105.36419678 C151.81811806 121.27182434 148.08341821 132.968952 137.43420029 145.30681515 C135.48741575 147.60514553 133.78446571 150.04745464 132.08984375 152.53515625 C131.56148926 153.29256104 131.03313477 154.04996582 130.48876953 154.83032227 C129.97685059 155.56694092 129.46493164 156.30355957 128.9375 157.0625 C127.76718077 158.73976037 126.59660304 160.41684041 125.42578125 162.09375 C124.85553223 162.91101563 124.2852832 163.72828125 123.69775391 164.5703125 C121.016332 168.40774575 118.32274782 172.23653208 115.625 176.0625 C115.17374756 176.70388916 114.72249512 177.34527832 114.25756836 178.00610352 C113.81421143 178.63444092 113.37085449 179.26277832 112.9140625 179.91015625 C112.49049973 180.52469162 112.06693695 181.13922699 111.63053894 181.77238464 C110 184 110 184 108.00057983 186.28338623 C101.62789331 193.92914244 100.85125324 200.14987965 101 209.85546875 C100.99246316 211.25224557 100.98141307 212.64900738 100.96704102 214.04573059 C100.93886176 217.68434336 100.95772348 221.32117465 100.98712158 224.9597168 C101.0086709 228.68744315 100.98514996 232.41488355 100.96484375 236.14257812 C100.92839733 243.4298379 100.96599066 250.71137365 101 258 C91.1 258 81.2 258 71 258 C71.05542969 253.71 71.11085938 249.42 71.16796875 245 C71.18135442 241.53282291 71.18360566 238.06602677 71.17845917 234.59884644 C71.17606135 230.96365785 71.19228256 227.33095357 71.25708008 223.69628906 C71.76050667 200.70103955 71.76050667 200.70103955 60.31503296 181.41668701 C58.55993811 179.52592066 57.14960988 177.46130422 55.72265625 175.31640625 C54.8369752 174.06436946 53.950283 172.81304723 53.0625 171.5625 C52.05335725 170.13673868 51.04424353 168.71095683 50.03515625 167.28515625 C49.53387207 166.57762207 49.03258789 165.87008789 48.51611328 165.14111328 C46.00656077 161.59702704 43.50359641 158.04829489 41 154.5 C40.01565702 153.10544615 39.03128188 151.71091499 38.046875 150.31640625 C30.5234375 139.65820312 30.5234375 139.65820312 23 129 C23.66 128.67 24.32 128.34 25 128 C24.81081843 127.27059519 24.62163687 126.54119038 24.42672253 125.78968239 C22.59909501 118.63020654 21.02708435 111.46111642 19.63989258 104.20458984 C19.42487595 103.09414307 19.20985931 101.98369629 18.98832703 100.83959961 C18.28717212 97.21399259 17.59073498 93.58749823 16.89453125 89.9609375 C16.40580831 87.42692614 15.91684682 84.89296078 15.42765808 82.35903931 C14.40780348 77.07259828 13.39009601 71.78575115 12.37426758 66.49853516 C11.19977911 60.38564072 10.02162521 54.27346161 8.84145623 48.16166151 C7.70291507 42.26519794 6.56651968 36.36832364 5.43118858 30.471241 C4.94880872 27.96640593 4.46595146 25.46166274 3.98261452 22.95701218 C3.31052564 19.47218405 2.6408666 15.98689806 1.97192383 12.50146484 C1.77092072 11.46152374 1.5699176 10.42158264 1.36282349 9.35012817 C1.09165962 7.93319672 1.09165962 7.93319672 0.8150177 6.48764038 C0.65667859 5.66439459 0.49833948 4.8411488 0.33520222 3.99295616 C0 2 0 2 0 0 Z M86 42 C83.6411711 49.91207321 81.28465489 57.82483047 78.93080807 65.73838711 C77.83684957 69.41599615 76.74219907 73.09339575 75.64575195 76.77026367 C75.22020185 78.19775003 74.79466469 79.62524025 74.36914062 81.05273438 C74.15899763 81.75735715 73.94885464 82.46197992 73.73234367 83.1879549 C72.67955594 86.72226942 71.63316533 90.25828543 70.59915161 93.79814148 C70.19197478 95.19121014 69.78473861 96.58426145 69.37744141 97.97729492 C69.17931917 98.65544848 68.98119694 99.33360205 68.777071 100.03230572 C67.46892896 104.48250942 66.078469 108.90032867 64.64990234 113.3137207 C64.29867813 114.44145401 63.94745392 115.56918732 63.58558655 116.73109436 C62.94095987 118.80074305 62.26975603 120.86240289 61.56565857 122.9125824 C59.95306941 128.2232901 59.71418907 131.40050726 61.99633789 136.54760742 C63.83099724 139.92665015 65.79110983 143.11449261 68.2265625 146.09765625 C72.2604387 151.24762052 75.66400954 156.70600602 79.125 162.25 C80.20083879 163.94914469 81.2859203 165.64249478 82.3828125 167.328125 C82.84059082 168.0387207 83.29836914 168.74931641 83.77001953 169.48144531 C84.37885986 170.23312988 84.37885986 170.23312988 85 171 C85.66 171 86.32 171 87 171 C88.53633773 168.99854385 88.53633773 168.99854385 90.08984375 166.3828125 C90.70520996 165.39289307 91.32057617 164.40297363 91.95458984 163.38305664 C93.28934309 161.18996601 94.61900728 158.99377089 95.94384766 156.79467773 C99.42222659 151.04551592 102.88192961 145.55794721 107.25170898 140.44116211 C111.72015855 134.00198338 111.72015855 134.00198338 112.82173157 126.44050598 C112.14460702 123.53820945 111.28626149 120.75964874 110.33984375 117.93359375 C109.65560533 115.70900113 108.97170257 113.48430525 108.28808594 111.25952148 C107.91462036 110.08348358 107.54115479 108.90744568 107.15637207 107.69577026 C105.96913596 103.90135838 104.8466263 100.09134031 103.75097656 96.26977539 C103.56295597 95.61423141 103.37493538 94.95868742 103.18121719 94.28327847 C102.797525 92.94509925 102.41390548 91.60689919 102.03035736 90.26867867 C100.86527902 86.2215912 99.67546196 82.18174073 98.48862839 78.14099216 C97.47335362 74.68338503 96.46124378 71.22492746 95.45678711 67.76416016 C94.46357763 64.34223163 93.46284573 60.92259267 92.45646095 57.5045166 C91.89634762 55.59532085 91.34381973 53.68390497 90.79142761 51.77246094 C90.45379898 50.63196289 90.11617035 49.49146484 89.76831055 48.31640625 C89.47409714 47.31037354 89.17988373 46.30434082 88.87675476 45.26782227 C88.22806572 42.83362107 88.22806572 42.83362107 86 42 Z " fill="#000000" transform="translate(164,122)"/>
<path d="M0 0 C3.83378636 1.81233537 5.53351018 3.30026527 7.875 6.8125 C9.60173809 11.70492458 9.60173809 15.29507542 7.875 20.1875 C5.53351018 23.69973473 3.83378636 25.18766463 0 27 C-5.02023393 27.79997224 -8.82265121 27.55656488 -13.4375 25.375 C-17.34279524 21.75545807 -18.80799562 18.79204088 -19.375 13.5 C-18.80799562 8.20795912 -17.34279524 5.24454193 -13.4375 1.625 C-8.82265121 -0.55656488 -5.02023393 -0.79997224 0 0 Z " fill="#000000" transform="translate(255,218)"/>
<path d="M0 0 C1.32 0 2.64 0 4 0 C4.66 0.99 5.32 1.98 6 3 C6.33 2.01 6.66 1.02 7 0 C7.99 0 8.98 0 10 0 C10 3.3 10 6.6 10 10 C6 9 6 9 4 7 C3.67 7.99 3.34 8.98 3 10 C2.01 10 1.02 10 0 10 C0 6.7 0 3.4 0 0 Z " fill="#000000" transform="translate(390,395)"/>
<path d="M0 0 C4 1 4 1 6 3 C6.33 2.01 6.66 1.02 7 0 C7.99 0 8.98 0 10 0 C10 3.3 10 6.6 10 10 C8.68 10 7.36 10 6 10 C5.34 9.01 4.68 8.02 4 7 C3.67 7.99 3.34 8.98 3 10 C2.01 10 1.02 10 0 10 C0 6.7 0 3.4 0 0 Z " fill="#000000" transform="translate(253,395)"/>
<path d="M0 0 C1.9453125 -0.29296875 1.9453125 -0.29296875 4.125 -0.1875 C5.40375 -0.125625 6.6825 -0.06375 8 0 C8 0.99 8 1.98 8 3 C6.35 3 4.7 3 3 3 C2.67 4.32 2.34 5.64 2 7 C3.32 7.33 4.64 7.66 6 8 C6 7.01 6 6.02 6 5 C6.66 5 7.32 5 8 5 C8 6.65 8 8.3 8 10 C5.31026772 10.74714785 3.48221402 11.1205535 0.75 10.4375 C-1 9 -1 9 -1.875 6.0625 C-2 3 -2 3 0 0 Z " fill="#000000" transform="translate(354,395)"/>
<path d="M0 0 C2.64 0 5.28 0 8 0 C8 0.66 8 1.32 8 2 C6.35 2 4.7 2 3 2 C3 2.66 3 3.32 3 4 C4.65 4 6.3 4 8 4 C8 4.66 8 5.32 8 6 C6.35 6 4.7 6 3 6 C3 6.66 3 7.32 3 8 C4.98 8 6.96 8 9 8 C9 8.66 9 9.32 9 10 C6.03 10 3.06 10 0 10 C0 6.7 0 3.4 0 0 Z " fill="#000000" transform="translate(372,395)"/>
<path d="M0 0 C2.31 0 4.62 0 7 0 C9.10852713 3.47286822 9.10852713 3.47286822 8.5625 6.125 C8.376875 6.74375 8.19125 7.3625 8 8 C8.33 8.66 8.66 9.32 9 10 C5 10 5 10 3.25 8.5 C2.8375 8.005 2.425 7.51 2 7 C2 7.99 2 8.98 2 10 C1.34 10 0.68 10 0 10 C0 6.7 0 3.4 0 0 Z M2 2 C2 2.99 2 3.98 2 5 C3.32 4.67 4.64 4.34 6 4 C5.67 3.34 5.34 2.68 5 2 C4.01 2 3.02 2 2 2 Z " fill="#000000" transform="translate(83,395)"/>
<path d="M0 0 C1.32 0 2.64 0 4 0 C5.32 3.3 6.64 6.6 8 10 C5.0703125 9.56054688 5.0703125 9.56054688 2.140625 9.12109375 C-0.33941547 8.87452051 -0.33941547 8.87452051 -4 10 C-2.68 6.7 -1.36 3.4 0 0 Z M1 4 C1 4.66 1 5.32 1 6 C1.66 5.67 2.32 5.34 3 5 C2.34 4.67 1.68 4.34 1 4 Z " fill="#000000" transform="translate(195,395)"/>
<path d="M0 0 C1.32 0 2.64 0 4 0 C5.32 3.3 6.64 6.6 8 10 C5.0703125 9.56054688 5.0703125 9.56054688 2.140625 9.12109375 C-0.33941547 8.87452051 -0.33941547 8.87452051 -4 10 C-2.68 6.7 -1.36 3.4 0 0 Z M1 4 C1 4.66 1 5.32 1 6 C1.66 5.67 2.32 5.34 3 5 C2.34 4.67 1.68 4.34 1 4 Z " fill="#000000" transform="translate(66,395)"/>
<path d="M0 0 C3.625 -0.1875 3.625 -0.1875 7 0 C7.33 0.99 7.66 1.98 8 3 C5.69 3 3.38 3 1 3 C1.33 4.32 1.66 5.64 2 7 C3.98 7 5.96 7 8 7 C7.67 7.99 7.34 8.98 7 10 C4.61426088 11.06946926 3.34597117 11.08896402 0.8125 10.4375 C-1 9 -1 9 -1.875 6.0625 C-2 3 -2 3 0 0 Z " fill="#000000" transform="translate(162,395)"/>
<path d="M0 0 C2.64 0 5.28 0 8 0 C8 0.66 8 1.32 8 2 C6.02 2 4.04 2 2 2 C2 2.66 2 3.32 2 4 C3.65 4 5.3 4 7 4 C7 4.66 7 5.32 7 6 C5.35 6 3.7 6 2 6 C2 6.66 2 7.32 2 8 C3.98 8 5.96 8 8 8 C8 8.66 8 9.32 8 10 C5.36 10 2.72 10 0 10 C0 6.7 0 3.4 0 0 Z " fill="#000000" transform="translate(429,395)"/>
<path d="M0 0 C1.670625 0.061875 1.670625 0.061875 3.375 0.125 C3.375 1.115 3.375 2.105 3.375 3.125 C1.725 3.125 0.075 3.125 -1.625 3.125 C-1.625 4.445 -1.625 5.765 -1.625 7.125 C0.025 7.125 1.675 7.125 3.375 7.125 C3.375 8.115 3.375 9.105 3.375 10.125 C0.39711118 11.03491047 -1.05997994 11.38460381 -3.9375 10.0625 C-5.625 8.125 -5.625 8.125 -6 5.0625 C-5.42756768 0.57844681 -4.48805053 0.15476036 0 0 Z " fill="#000000" transform="translate(415.625,394.875)"/>
<path d="M0 0 C2.64 0 5.28 0 8 0 C8 0.66 8 1.32 8 2 C6.02 2 4.04 2 2 2 C2 2.66 2 3.32 2 4 C3.65 4 5.3 4 7 4 C7 4.66 7 5.32 7 6 C5.35 6 3.7 6 2 6 C2 6.66 2 7.32 2 8 C3.98 8 5.96 8 8 8 C8 8.66 8 9.32 8 10 C5.36 10 2.72 10 0 10 C0 6.7 0 3.4 0 0 Z " fill="#000000" transform="translate(290,395)"/>
<path d="M0 0 C2.64 0 5.28 0 8 0 C8 0.66 8 1.32 8 2 C6.35 2 4.7 2 3 2 C3 2.66 3 3.32 3 4 C4.32 4 5.64 4 7 4 C7 4.66 7 5.32 7 6 C5.68 6 4.36 6 3 6 C3 7.32 3 8.64 3 10 C2.01 10 1.02 10 0 10 C0 6.7 0 3.4 0 0 Z " fill="#000000" transform="translate(131,395)"/>
<path d="M0 0 C2.97 0 5.94 0 9 0 C9 0.66 9 1.32 9 2 C8.01 2 7.02 2 6 2 C6 4.64 6 7.28 6 10 C5.01 10 4.02 10 3 10 C3 7.36 3 4.72 3 2 C2.01 2 1.02 2 0 2 C0 1.34 0 0.68 0 0 Z " fill="#000000" transform="translate(272,395)"/>
<path d="M0 0 C0.99 0 1.98 0 3 0 C3 2.64 3 5.28 3 8 C4.32 8 5.64 8 7 8 C7 8.66 7 9.32 7 10 C4.69 10 2.38 10 0 10 C0 6.7 0 3.4 0 0 Z " fill="#000000" transform="translate(324,395)"/>
<path d="M0 0 C2.97 0 5.94 0 9 0 C9 0.66 9 1.32 9 2 C8.01 2 7.02 2 6 2 C6 4.64 6 7.28 6 10 C5.34 10 4.68 10 4 10 C4 7.36 4 4.72 4 2 C2.68 2 1.36 2 0 2 C0 1.34 0 0.68 0 0 Z " fill="#000000" transform="translate(100,395)"/>
<path d="M0 0 C0.99 0 1.98 0 3 0 C3 3.3 3 6.6 3 10 C2.01 10 1.02 10 0 10 C0 6.7 0 3.4 0 0 Z " fill="#000000" transform="translate(340,395)"/>
<path d="M0 0 C0.66 0 1.32 0 2 0 C2 2.64 2 5.28 2 8 C3.65 8 5.3 8 7 8 C7 8.66 7 9.32 7 10 C4.69 10 2.38 10 0 10 C0 6.7 0 3.4 0 0 Z " fill="#000000" transform="translate(308,395)"/>
<path d="M0 0 C0.99 0 1.98 0 3 0 C3 3.3 3 6.6 3 10 C2.01 10 1.02 10 0 10 C0 6.7 0 3.4 0 0 Z " fill="#000000" transform="translate(240,395)"/>
<path d="M0 0 C0.66 0 1.32 0 2 0 C2 2.64 2 5.28 2 8 C3.65 8 5.3 8 7 8 C7 8.66 7 9.32 7 10 C4.69 10 2.38 10 0 10 C0 6.7 0 3.4 0 0 Z " fill="#000000" transform="translate(212,395)"/>
<path d="M0 0 C0.99 0 1.98 0 3 0 C3 3.3 3 6.6 3 10 C2.01 10 1.02 10 0 10 C0 6.7 0 3.4 0 0 Z " fill="#000000" transform="translate(148,395)"/>
<path d="M0 0 C0.99 0 1.98 0 3 0 C3 3.3 3 6.6 3 10 C2.01 10 1.02 10 0 10 C0 6.7 0 3.4 0 0 Z " fill="#000000" transform="translate(118,395)"/>
<path d="M0 0 C0.66 0 1.32 0 2 0 C2 3.3 2 6.6 2 10 C1.34 10 0.68 10 0 10 C0 6.7 0 3.4 0 0 Z " fill="#000000" transform="translate(180,395)"/>
</svg>
